<svg xmlns="http://www.w3.org/2000/svg" viewBox="0 0 512 512" fill="none">
  <!-- Circular gold border with cream background -->
  <circle cx="256" cy="256" r="240" fill="#FAF8F5" stroke="#d4af37" stroke-width="10"/>
  
  <!-- Stylized Sycamore/Çınar Tree Structure -->
  <!-- Main Trunk and Roots in Deep Teal #0F4E56 (matching the new logo's border) -->
  <path d="M256 410 C256 350 230 320 200 290 C190 280 180 270 180 250 C180 230 200 220 220 240 C240 260 250 280 256 310 C262 280 272 260 292 240 C312 220 332 230 332 250 C332 270 322 280 312 290 C282 320 256 350 256 410 Z" fill="#0F4E56"/>
  <path d="M180 410 C210 405 302 405 332 410 C340 420 310 425 256 425 C202 425 182 420 180 410 Z" fill="#0F4E56"/>

  <!-- Left Leaf Cluster in Brand Olive Green #556B2F -->
  <path d="M170 220 C130 220 110 180 130 150 C110 120 140 90 170 110 C180 80 210 80 220 110 C240 90 260 120 250 150 C260 180 240 220 210 210 C190 230 180 230 170 220 Z" fill="#556B2F" opacity="0.95"/>

  <!-- Right Leaf Cluster in Lush Emerald Green #1F7C6B (matching the new logo's vibrant leaves) -->
  <path d="M342 220 C302 220 282 180 302 150 C282 120 312 90 342 110 C352 80 382 80 392 110 C412 90 432 120 422 150 C432 180 412 220 382 210 C362 230 352 230 342 220 Z" fill="#1F7C6B" opacity="0.95"/>

  <!-- Top Center Leaf Cluster in Vibrant Green #28A745 -->
  <path d="M256 150 C216 150 206 110 226 80 C216 50 246 20 276 40 C286 10 316 10 326 40 C346 20 366 50 356 80 C366 110 346 150 326 140 C306 160 276 160 256 150 Z" fill="#28A745"/>

  <!-- Premium Gold Accents #d4af37 (Gold leaf details) -->
  <!-- Left Gold Leaf -->
  <path d="M155 170 C140 170 140 155 155 145 C170 145 170 170 155 170 Z" fill="#d4af37"/>
  <!-- Right Gold Leaf -->
  <path d="M357 170 C342 170 347 155 357 145 C372 145 372 170 357 170 Z" fill="#d4af37"/>
  <!-- Top Gold Leaf -->
  <path d="M256 100 C246 100 246 85 256 75 C266 85 266 100 256 100 Z" fill="#d4af37"/>
</svg>
